<?xml version="1.0" encoding="UTF-8"?>
<svg width="742px" height="636px" viewBox="0 0 742 636" version="1.1" xmlns="http://www.w3.org/2000/svg" xmlns:xlink="http://www.w3.org/1999/xlink">
    <!-- Generator: Sketch 49.3 (51167) - http://www.bohemiancoding.com/sketch -->
    <title>Group 29</title>
    <desc>Created with Sketch.</desc>
    <defs>
        <filter x="-52.1%" y="-34.9%" width="204.1%" height="169.8%" filterUnits="objectBoundingBox" id="filter-1">
            <feGaussianBlur stdDeviation="24.5699143" in="SourceGraphic"></feGaussianBlur>
        </filter>
        <linearGradient x1="3.175543%" y1="52.1069434%" x2="107.779472%" y2="52.1069407%" id="linearGradient-2">
            <stop stop-color="#1AAAFF" offset="0%"></stop>
            <stop stop-color="#5EEDFD" offset="100%"></stop>
        </linearGradient>
        <filter x="-52.1%" y="-34.9%" width="204.1%" height="169.8%" filterUnits="objectBoundingBox" id="filter-3">
            <feGaussianBlur stdDeviation="24.5699143" in="SourceGraphic"></feGaussianBlur>
        </filter>
        <rect id="path-4" x="0" y="0" width="166.4" height="211.2" rx="10.22208"></rect>
        <filter x="-52.1%" y="-34.9%" width="204.1%" height="169.8%" filterUnits="objectBoundingBox" id="filter-6">
            <feGaussianBlur stdDeviation="24.5699143" in="SourceGraphic"></feGaussianBlur>
        </filter>
        <filter x="-52.0%" y="-34.9%" width="204.0%" height="169.9%" filterUnits="objectBoundingBox" id="filter-7">
            <feGaussianBlur stdDeviation="26.7570089" in="SourceGraphic"></feGaussianBlur>
        </filter>
        <rect id="path-8" x="0" y="0" width="181.148" height="229.724" rx="11.132"></rect>
        <linearGradient x1="50%" y1="0%" x2="50%" y2="100%" id="linearGradient-10">
            <stop stop-color="#FBD249" offset="0%"></stop>
            <stop stop-color="#F5A623" offset="100%"></stop>
        </linearGradient>
    </defs>
    <g id="Page-1" stroke="none" stroke-width="1" fill="none" fill-rule="evenodd">
        <g id="Group-29" transform="translate(58.000000, 37.000000)">
            <path d="M82.8,177.4 L82.8,241.985726 L293.066784,241.985726 L293.066784,275.647415" id="Path-3" stroke="#3961FF" stroke-width="2.4" stroke-linecap="round" stroke-linejoin="round" stroke-dasharray="8"></path>
            <path d="M318.8,184 L318.8,279.298543" id="Path-4" stroke="#3961FF" stroke-width="2.4" stroke-linecap="round" stroke-linejoin="round" stroke-dasharray="8"></path>
            <path d="M553.995641,180 L553.995641,242.13128 L342,242.13128 L342,280.607459" id="Path-5" stroke="#3961FF" stroke-width="2.4" stroke-linecap="round" stroke-linejoin="round" stroke-dasharray="8"></path>
            <g id="Group-25" transform="translate(235.000000, 0.000000)">
                <g id="Group-19">
                    <rect id="shadow" fill="#323C5A" opacity="0.244696553" filter="url(#filter-1)" x="12.8" y="24" width="141.6" height="211.2" rx="22.30272"></rect>
                    <rect id="bg" fill="#FFFFFF" x="0" y="0" width="166.4" height="211.2" rx="10.22208"></rect>
                    <g id="Group-5-Copy-2" transform="translate(20.800000, 74.400000)" fill="#323C5A">
                        <text id="16%" font-family="AvenirNext-DemiBold, Avenir Next" font-size="20" font-weight="500">
                            <tspan x="0" y="38.4">16%</tspan>
                        </text>
                        <text id="Volatility" font-family="Montserrat, sans-serif" font-size="12.8" font-weight="400">
                            <tspan x="0" y="13">Volatility</tspan>
                        </text>
                    </g>
                    <g id="Group-4" transform="translate(23.200000, 131.200000)" fill="#323C5A">
                        <text id="26%" font-family="AvenirNext-DemiBold, Avenir Next" font-size="20" font-weight="500">
                            <tspan x="0" y="38.4">26%</tspan>
                        </text>
                        <text id="Return" font-family="Montserrat, sans-serif" font-size="12.8" font-weight="400">
                            <tspan x="0" y="13">Return</tspan>
                        </text>
                    </g>
                    <g id="logo" transform="translate(23.200000, 22.400000)">
                        <rect id="Rectangle-3" fill="url(#linearGradient-2)" x="0" y="5.05423448" width="30.5733108" height="30.5733108" rx="9.504"></rect>
                        <text id="a" font-family="Montserrat, sans-serif" font-size="28.512" font-weight="300" fill="#FFFFFF">
                            <tspan x="6.98741009" y="28.2039172">a</tspan>
                        </text>
                        <text id="Advice" font-family="Montserrat, sans-serif" font-size="20.2752" font-weight="400" letter-spacing="0.422399998" fill="#323C5A">
                            <tspan x="38.0461714" y="30.9824">Advice</tspan>
                        </text>
                    </g>
                    <g id="Group-21" transform="translate(103.200000, 136.000000)">
                        <g id="user-4" transform="translate(11.200000, 4.800000)">
                            <path d="M31.1392405,0.767010309 L31.1392405,14.5731959 L22.0253165,10.4824742 C15.9898734,15.9333608 8.86075949,14.5731959 8.86075949,14.5731959 L8.86075949,8.94845361 C8.86075949,8.94845361 10.4405063,0.767010309 20,0.767010309 L31.1392405,0.767010309 L31.1392405,0.767010309 Z" id="Shape" fill="#846954"></path>
                            <path d="M21.5189873,37.0721649 L24.0506329,43.2082474 L21.0126582,48.8329897 L18.9873418,48.8329897 L15.9493671,43.2082474 L18.4810127,37.0721649 L18.5316456,36.8574021 C18.9873418,36.9903505 19.4835443,37.0721649 20,37.0721649 C20.5164557,37.0721649 21.0126582,36.9903505 21.4683544,36.8574021 L21.5189873,37.0721649 L21.5189873,37.0721649 Z" id="Shape" fill="#F4661E"></path>
                            <path d="M29.6202532,37.5835052 C29.6202532,37.5835052 29.5594937,45.6729072 22.0253165,48.8329897 L21.0126582,48.8329897 L24.0506329,43.2082474 L21.5189873,37.0721649 L21.4683544,36.8574021 C23.6455696,36.2540206 25.0632911,34.5154639 25.0632911,34.5154639 C26.1670886,35.763134 29.6202532,37.5835052 29.6202532,37.5835052 L29.6202532,37.5835052 Z" id="Shape" fill="#E7ECED"></path>
                            <path d="M15.9493671,43.2082474 L18.9873418,48.8329897 L17.9746835,48.8329897 C10.4405063,45.6729072 10.3797468,37.5835052 10.3797468,37.5835052 C10.3797468,37.5835052 13.8329114,35.763134 14.9367089,34.5154639 C14.9367089,34.5154639 16.3544304,36.2540206 18.5316456,36.8574021 L18.4810127,37.0721649 L15.9493671,43.2082474 L15.9493671,43.2082474 Z" id="Shape" fill="#E7ECED"></path>
                            <path d="M29.6202532,37.5835052 L34.1772152,43.7195876 L30.1265823,45.7649485 L32.6582278,48.8329897 L22.0253165,48.8329897 C29.5594937,45.6729072 29.6202532,37.5835052 29.6202532,37.5835052 L29.6202532,37.5835052 Z" id="Shape" fill="#545253"></path>
                            <path d="M17.9746835,48.8329897 L7.34177215,48.8329897 L9.87341772,45.7649485 L5.82278481,43.7195876 L10.3797468,37.5835052 C10.3797468,37.5835052 10.4405063,45.6729072 17.9746835,48.8329897 L17.9746835,48.8329897 Z" id="Shape" fill="#545253"></path>
                            <path d="M39.2405063,46.2762887 L39.2405063,48.8329897 L32.6582278,48.8329897 L30.1265823,45.7649485 L34.1772152,43.7195876 L29.6202532,37.5835052 C39.2101266,40.6515464 39.2405063,46.2762887 39.2405063,46.2762887 L39.2405063,46.2762887 Z" id="Shape" fill="#373738"></path>
                            <path d="M31.1392405,17.1298969 C32.8202532,17.1298969 34.1772152,17.7639588 34.1772152,19.1752577 C34.1772152,20.4842887 32.5772152,21.9978557 31.0075949,22.2126186 C31.0987342,21.5581031 31.1392405,20.883134 31.1392405,20.1979381 L31.1392405,17.1298969 L31.1392405,17.1298969 Z" id="Shape" fill="#FFD7A3"></path>
                            <path d="M31.0075949,22.2126186 C30.4607595,26.211299 28.3139241,29.5656907 25.0632911,31.2633402 C23.5848101,32.0405773 21.8835443,32.4701031 20,32.4701031 C18.1164557,32.4701031 16.4151899,32.0405773 14.9367089,31.2633402 C11.6860759,29.5656907 9.53924051,26.211299 8.99240506,22.2126186 C8.90126582,21.5581031 8.86075949,20.883134 8.86075949,20.1979381 L8.86075949,17.1298969 L8.86075949,14.5731959 C8.86075949,14.5731959 15.9898734,15.9333608 22.0253165,10.4824742 L31.1392405,14.5731959 L31.1392405,17.1298969 L31.1392405,20.1979381 C31.1392405,20.883134 31.0987342,21.5581031 31.0075949,22.2126186 L31.0075949,22.2126186 Z" id="Shape" fill="#FFE1B2"></path>
                            <path d="M25.0632911,31.2633402 L25.0632911,34.5154639 C25.0632911,34.5154639 23.6455696,36.2540206 21.4683544,36.8574021 C21.0126582,36.9903505 20.5164557,37.0721649 20,37.0721649 C19.4835443,37.0721649 18.9873418,36.9903505 18.5316456,36.8574021 C16.3544304,36.2540206 14.9367089,34.5154639 14.9367089,34.5154639 L14.9367089,31.2633402 C16.4151899,32.0405773 18.1164557,32.4701031 20,32.4701031 C21.8835443,32.4701031 23.5848101,32.0405773 25.0632911,31.2633402 L25.0632911,31.2633402 Z" id="Shape" fill="#FFD7A3"></path>
                            <path d="M10.3797468,37.5835052 L5.82278481,43.7195876 L9.87341772,45.7649485 L7.34177215,48.8329897 L0.759493671,48.8329897 L0.759493671,46.2762887 C0.759493671,46.2762887 0.850632911,40.6822268 10.3797468,37.5835052 L10.3797468,37.5835052 Z" id="Shape" fill="#373738"></path>
                            <path d="M8.86075949,20.1979381 C8.86075949,20.883134 8.90126582,21.5581031 8.99240506,22.2126186 C7.42278481,21.9978557 5.82278481,20.4842887 5.82278481,19.1752577 C5.82278481,17.7639588 7.17974684,17.1298969 8.86075949,17.1298969 L8.86075949,20.1979381 L8.86075949,20.1979381 Z" id="Shape" fill="#FFD7A3"></path>
                            <path d="M30.0837468,36.9292965 L28.8703797,36.2903258 C27.8358481,35.6901146 26.5071392,34.8550961 25.8226835,34.2027282 L25.8226835,31.7177171 C28.8997468,29.9410144 31.0038481,26.7533196 31.6762532,22.851487 C33.4195443,22.3473056 34.9367089,20.6950631 34.9367089,19.1752577 C34.9367089,17.6368396 33.7915949,16.6158977 31.8987342,16.4044074 L31.8987342,0 L20,0 C14.7566582,0 11.8028354,2.38417485 10.2482025,4.38412866 C8.56465823,6.54996124 8.13286076,8.71068041 8.11534177,8.8015967 L8.10126582,8.87430928 L8.10126582,16.4043052 C6.20840506,16.6157955 5.06329114,17.6367373 5.06329114,19.1751555 C5.06329114,20.6949608 6.58055696,22.3472033 8.32364557,22.8512825 C8.99675949,26.7546491 11.1011646,29.9422416 14.1772152,31.7176148 L14.1772152,34.202626 C13.4928608,34.8549938 12.1641519,35.6901146 11.129519,36.2902235 L9.91503797,36.9307282 C0.211949367,40.1768181 0.00415189873,46.014687 0.000101265823,46.2635052 L0,49.6 L40,49.6 L40,46.2720957 C39.9985823,46.0216412 39.8526582,40.1467513 30.0837468,36.9292965 L30.0837468,36.9292965 Z M20,33.2371134 C21.5269873,33.2371134 22.969519,32.9717278 24.3037975,32.4495472 L24.3037975,34.2202161 C23.8936709,34.6528099 22.7820759,35.6979893 21.267443,36.1176973 L21.257519,36.1204586 C20.4180253,36.3654928 19.5821772,36.3654928 18.742481,36.1204586 L18.7326582,36.1176973 C17.2293671,35.7010573 16.1086582,34.6509691 15.6962025,34.2186821 L15.6962025,32.4494449 C17.0310886,32.9718301 18.4733165,33.2371134 20,33.2371134 L20,33.2371134 Z M25.0882025,35.5926532 C26.2145823,36.5457913 27.9929114,37.5663241 28.8329114,38.0280643 C28.6888101,39.6365361 27.8043544,45.1404998 22.4334177,47.8042755 L24.8917468,43.252734 L22.4476962,37.32896 C23.6312911,36.8440049 24.5451139,36.1074705 25.0882025,35.5926532 L25.0882025,35.5926532 Z M17.5523038,37.3288577 L15.1082532,43.2526318 L17.5653671,47.8019233 C15.0200506,46.5443332 13.1745823,44.526687 12.0777722,41.7901988 C11.4308861,40.1761023 11.2295696,38.730748 11.1671899,38.0280643 C12.0071899,37.5663241 13.785519,36.5457913 14.9118987,35.5926532 C15.4548861,36.1074705 16.3687089,36.8440049 17.5523038,37.3288577 L17.5523038,37.3288577 Z M10.6466835,42.3079819 C11.5903797,44.6917476 13.0903291,46.6428173 15.051443,48.0659794 L8.96334177,48.0659794 L11.0707848,45.5120396 L6.97640506,43.4445889 L9.8521519,39.5723118 C10.0010127,40.3478103 10.2454684,41.2944033 10.6466835,42.3079819 L10.6466835,42.3079819 Z M16.790481,43.1637608 L19.0220759,37.7548041 C19.6729114,37.8647423 20.3269873,37.8647423 20.9778228,37.7548041 L23.209519,43.1637608 L20.5618228,48.0659794 L19.4381772,48.0659794 L16.790481,43.1637608 L16.790481,43.1637608 Z M29.3533165,42.3079819 C29.7545316,41.2944033 29.9989873,40.3478103 30.1478481,39.5723118 L33.0235949,43.4445889 L28.9291139,45.5120396 L31.0366582,48.0659794 L24.9486582,48.0659794 C26.9097722,46.6428173 28.4097215,44.6916454 29.3533165,42.3079819 L29.3533165,42.3079819 Z M33.4177215,19.1752577 C33.4177215,19.8017518 32.7466329,20.6547695 31.8717975,21.1255093 C31.8885063,20.8223868 31.8987342,17.9462004 31.8987342,17.9462004 C33.2523544,18.1378507 33.4177215,18.8447274 33.4177215,19.1752577 L33.4177215,19.1752577 Z M11.4828354,5.28050804 C13.4413165,2.79457649 16.3069367,1.53402062 20,1.53402062 L30.3797468,1.53402062 L30.3797468,13.3929204 L21.8850633,9.5801633 L21.5189873,9.91079588 C19.1466329,12.0534136 16.3263797,13.3631604 13.1367089,13.8038334 C11.5908861,14.0173691 10.328,13.9634738 9.62025316,13.8973064 L9.62025316,9.03262021 C9.70248101,8.68204536 10.1559494,6.96465814 11.4828354,5.28050804 L11.4828354,5.28050804 Z M6.58227848,19.1752577 C6.58227848,18.8447274 6.74764557,18.1378507 8.10126582,17.9462004 C8.10126582,17.9462004 8.11149367,20.8224891 8.12820253,21.1255093 C7.25336709,20.6546672 6.58227848,19.8017518 6.58227848,19.1752577 L6.58227848,19.1752577 Z M9.74450633,22.1058507 C9.66207595,21.5137188 9.62025316,20.8718845 9.62025316,20.1979381 L9.62025316,15.4384858 C10.4249114,15.5058804 11.7155443,15.5425946 13.2801013,15.332127 C15.6084051,15.01888 19.0002025,14.0756619 22.1586835,11.3816148 L30.3797468,15.0716503 L30.3797468,20.1979381 C30.3797468,20.8714755 30.3379241,21.513412 30.2552911,22.1076915 C29.732962,25.9270961 27.7133165,29.0157955 24.7127089,30.5830532 C23.2987342,31.3262351 21.7132152,31.7030928 20,31.7030928 C18.2868861,31.7030928 16.7012658,31.3262351 15.2855696,30.5820305 C12.2866835,29.0158977 10.2671392,25.9270961 9.74450633,22.1058507 L9.74450633,22.1058507 Z M1.51898734,46.2855951 C1.52405063,46.146306 1.74855696,42.1279901 8.20324051,39.2358499 L4.66916456,43.9945864 L8.67605063,46.0178573 L6.98602532,48.0659794 L1.51898734,48.0659794 L1.51898734,46.2855951 L1.51898734,46.2855951 Z M38.4810127,48.0659794 L33.0139747,48.0659794 L31.3239494,46.0178573 L35.3307342,43.9945864 L31.7862278,39.2217369 C33.84,40.1335588 35.9843038,41.4774631 37.3298228,43.4112495 C38.4151899,44.9712462 38.4785823,46.2193254 38.4810127,46.2845724 L38.4810127,48.0659794 L38.4810127,48.0659794 Z" id="Shape" fill="#231F20"></path>
                            <path d="M20,24.0329897 L22.0253165,24.0329897 L22.0253165,22.4989691 L20.7594937,22.4989691 L20.7594937,19.1752577 L19.2405063,19.1752577 L19.2405063,23.2659794 C19.2405063,23.6895736 19.580557,24.0329897 20,24.0329897 L20,24.0329897 Z" id="Shape" fill="#231F20"></path>
                        </g>
                        <rect id="Rectangle-11" fill-opacity="0.66" fill="#FFFFFF" x="0" y="0" width="60" height="64"></rect>
                    </g>
                </g>
            </g>
            <g id="Group-24">
                <rect id="shadow" fill="#323C5A" opacity="0.244696553" filter="url(#filter-3)" x="4.8" y="24" width="141.6" height="211.2" rx="22.30272"></rect>
                <mask id="mask-5" fill="white">
                    <use xlink:href="#path-4"></use>
                </mask>
                <use id="bg" fill="#FFFFFF" xlink:href="#path-4"></use>
                <g id="Group-5" mask="url(#mask-5)">
                    <g transform="translate(15.200000, 75.200000)">
                        <text id="12%" font-family="AvenirNext-DemiBold, Avenir Next" font-size="20" font-weight="500">
                            <tspan x="0" y="38.4" fill="#323C5A">12%</tspan>
                        </text>
                        <text id="Volatility" font-family="Montserrat, sans-serif" font-size="12.8" font-weight="400">
                            <tspan x="0" y="13" fill="#323C5A">Volatility</tspan>
                        </text>
                    </g>
                </g>
                <g id="Group-4" mask="url(#mask-5)">
                    <g transform="translate(15.200000, 131.200000)">
                        <text id="20.5%" font-family="AvenirNext-DemiBold, Avenir Next" font-size="20" font-weight="500">
                            <tspan x="0" y="38.4" fill="#323C5A">20.5%</tspan>
                        </text>
                        <text id="Return" font-family="Montserrat, sans-serif" font-size="12.8" font-weight="400">
                            <tspan x="0" y="13" fill="#323C5A">Return</tspan>
                        </text>
                    </g>
                </g>
                <g id="logo" transform="translate(15.200000, 22.400000)">
                    <rect id="Rectangle-3" fill="url(#linearGradient-2)" x="0" y="5.05423448" width="30.5733108" height="30.5733108" rx="9.504"></rect>
                    <text id="a" font-family="Montserrat, sans-serif" font-size="28.512" font-weight="300" fill="#FFFFFF">
                        <tspan x="6.98741009" y="28.2039172">a</tspan>
                    </text>
                    <text id="Advice" font-family="Montserrat, sans-serif" font-size="20.2752" font-weight="400" letter-spacing="0.422399998" fill="#323C5A">
                        <tspan x="38.0461714" y="30.9824">Advice</tspan>
                    </text>
                </g>
                <g id="Group-22" transform="translate(106.400000, 136.800000)">
                    <g id="user-8" transform="translate(8.000000, 5.600000)">
                        <path d="M39.2405063,46.2762887 L39.2405063,48.8329897 L33.164557,48.8329897 L33.164557,39.1175258 L33.1949367,39.0459381 C39.2202532,42.1548866 39.2405063,46.2762887 39.2405063,46.2762887 L39.2405063,46.2762887 Z" id="Shape" fill="#E7ECED"></path>
                        <path d="M6.83544304,39.0561649 L6.83544304,48.8329897 L0.759493671,48.8329897 L0.759493671,46.2762887 C0.759493671,46.2762887 0.830379747,42.1753402 6.83544304,39.0561649 L6.83544304,39.0561649 Z" id="Shape" fill="#E7ECED"></path>
                        <path d="M33.1949367,39.0459381 L33.164557,39.1175258 L33.164557,48.8329897 L20,48.8329897 L20,45.2536082 L27.7164557,36.4892371 C28.7291139,37.1130722 29.6202532,37.5835052 29.6202532,37.5835052 C30.9974684,38.0232577 32.1822785,38.5243711 33.1949367,39.0459381 L33.1949367,39.0459381 Z" id="Shape" fill="#787E82"></path>
                        <path d="M20,45.2536082 L20,48.8329897 L6.83544304,48.8329897 L6.83544304,39.0561649 C7.83797468,38.5243711 9.01265823,38.0334845 10.3797468,37.5835052 C10.3797468,37.5835052 11.2708861,37.1130722 12.2835443,36.4892371 L20,45.2536082 L20,45.2536082 Z" id="Shape" fill="#787E82"></path>
                        <path d="M20,40.6515464 L25.0632911,34.5154639 C25.6,35.1290722 26.7240506,35.8858557 27.7164557,36.4892371 L20,45.2536082 L12.2835443,36.4892371 C13.2759494,35.8858557 14.4,35.1290722 14.9367089,34.5154639 L20,40.6515464 L20,40.6515464 Z" id="Shape" fill="#51565A"></path>
                        <path d="M25.0632911,34.0041237 L25.0632911,34.5154639 L20,40.6515464 L14.9367089,34.5154639 L14.9367089,34.0041237 L14.9367089,31.2633402 C16.4151899,32.0405773 18.1164557,32.4701031 20,32.4701031 C21.8835443,32.4701031 23.5848101,32.0405773 25.0632911,31.2633402 L25.0632911,34.0041237 L25.0632911,34.0041237 Z" id="Shape" fill="#FFD7A3"></path>
                        <path d="M8.86075949,20.1979381 C8.86075949,20.883134 8.90126582,21.5581031 8.99240506,22.2126186 C7.42278481,21.9978557 5.82278481,20.4842887 5.82278481,19.1752577 C5.82278481,17.7639588 7.17974684,17.1298969 8.86075949,17.1298969 L8.86075949,20.1979381 L8.86075949,20.1979381 Z" id="Shape" fill="#FFD7A3"></path>
                        <path d="M31.1392405,17.1298969 C32.8202532,17.1298969 34.1772152,17.7639588 34.1772152,19.1752577 C34.1772152,20.4842887 32.5772152,21.9978557 31.0075949,22.2126186 C31.0987342,21.5581031 31.1392405,20.883134 31.1392405,20.1979381 L31.1392405,17.1298969 L31.1392405,17.1298969 Z" id="Shape" fill="#FFD7A3"></path>
                        <path d="M8.99240506,22.2126186 C8.90126582,21.5581031 8.86075949,20.883134 8.86075949,20.1979381 L8.86075949,17.1298969 L8.86075949,15.5958763 L8.86075949,12.5278351 L8.86075949,12.0164948 C8.86075949,12.0164948 8.95189873,10.9938144 12.4050633,10.9938144 C15.8582278,10.9938144 20,13.0391753 20,13.0391753 C20,13.0391753 24.1417722,10.9938144 27.5949367,10.9938144 C31.0481013,10.9938144 31.1392405,12.0164948 31.1392405,12.0164948 L31.1392405,15.5958763 L31.1392405,17.1298969 L31.1392405,20.1979381 C31.1392405,20.883134 31.0987342,21.5581031 31.0075949,22.2126186 C30.6227848,25.0556701 29.4278481,27.5714639 27.5949367,29.4020619 L25.0632911,27.8680412 L24.0506329,24.8 L20,24.8 L15.9493671,24.8 L14.9367089,27.8680412 L12.4050633,29.4020619 C10.5721519,27.5714639 9.37721519,25.0556701 8.99240506,22.2126186 L8.99240506,22.2126186 Z" id="Shape" fill="#FFE1B2"></path>
                        <path d="M31.1392405,4.34639175 L31.1392405,12.0164948 C31.1392405,12.0164948 31.0481013,10.9938144 27.5949367,10.9938144 C24.1417722,10.9938144 20,13.0391753 20,13.0391753 C20,13.0391753 15.8582278,10.9938144 12.4050633,10.9938144 C8.95189873,10.9938144 8.86075949,12.0164948 8.86075949,12.0164948 L8.86075949,4.34639175 C8.86075949,4.34639175 8.89113924,0.767010309 20,0.767010309 C31.1088608,0.767010309 31.1392405,4.34639175 31.1392405,4.34639175 L31.1392405,4.34639175 Z" id="Shape" fill="#A97C50"></path>
                        <path d="M25.0632911,31.2633402 C23.5848101,32.0405773 21.8835443,32.4701031 20,32.4701031 C18.1164557,32.4701031 16.4151899,32.0405773 14.9367089,31.2633402 C13.9949367,30.7724536 13.1544304,30.1486186 12.4050633,29.4020619 L14.9367089,27.8680412 L15.9493671,24.8 L20,24.8 L24.0506329,24.8 L25.0632911,27.8680412 L27.5949367,29.4020619 C26.8455696,30.1486186 26.0050633,30.7724536 25.0632911,31.2633402 L25.0632911,31.2633402 Z" id="Shape" fill="#A97C50"></path>
                        <path d="M33.5399494,38.3626854 C32.4329114,37.792541 31.2136709,37.2916322 29.915038,36.8733559 C29.7050127,36.7606565 28.9457215,36.3481072 28.1082532,35.8321649 C27.0661266,35.1986144 26.2699747,34.6306177 25.8228861,34.2043645 L25.8228861,31.7182285 C26.6565063,31.2367505 27.4307848,30.6431868 28.1291139,29.9474573 C29.9785316,28.1003942 31.1989873,25.654654 31.6779747,22.8509757 C33.4203544,22.3462829 34.9367089,20.694654 34.9367089,19.1752577 C34.9367089,17.6368396 33.7915949,16.6158977 31.8987342,16.4044074 L31.8987342,4.3398466 C31.8979241,4.24340784 31.8762532,3.89252619 31.6317975,3.4275134 C31.3351899,2.86330062 30.8341266,2.35247175 30.142481,1.90913979 C28.1658734,0.642345567 24.753519,0 20,0 C15.246481,0 11.8341266,0.642345567 9.85762025,1.90903753 C9.16597468,2.35226722 8.66491139,2.86319835 8.3683038,3.42741113 C8.12374684,3.89242392 8.10217722,4.24340784 8.10126582,4.34639175 L8.10126582,16.4044074 C6.20840506,16.6158977 5.06329114,17.6368396 5.06329114,19.1752577 C5.06329114,20.694654 6.57974684,22.3463852 8.32222785,22.8509757 C8.80182278,25.6560858 10.0221772,28.1010078 11.8716962,29.9481732 C12.5698228,30.6436981 13.3445063,31.2374664 14.1772152,31.718433 L14.1772152,34.2044668 C13.7300253,34.63072 12.9333671,35.1989212 11.888,35.8345171 C11.0499241,36.3508685 10.2878987,36.7645427 10.0821266,36.8748899 C8.72405063,37.3250738 7.51331646,37.8302779 6.48810127,38.3741394 C0.151797468,41.6653295 0.00334177215,46.0767637 0.000101265823,46.2629938 L0,49.6 L40,49.6 L40,46.2725047 C39.9990886,46.0851497 39.9043038,41.6465122 33.5399494,38.3626854 L33.5399494,38.3626854 Z M29.3912911,38.3148239 C30.4623797,38.6568082 31.4736203,39.0575967 32.4050633,39.5077806 L32.4050633,48.0659794 L20.7594937,48.0659794 L20.7594937,45.5452767 L27.8665316,37.4731579 C28.6408101,37.9311142 29.3912911,38.3148239 29.3912911,38.3148239 L29.3912911,38.3148239 Z M15.6962025,32.4494449 C17.0310886,32.9718301 18.4733165,33.2371134 20,33.2371134 C21.5270886,33.2371134 22.9696203,32.9717278 24.3037975,32.4495472 L24.3037975,34.2378062 L20,39.4534763 L15.6962025,34.2378062 L15.6962025,32.4494449 L15.6962025,32.4494449 Z M20,25.5670103 L23.5031899,25.5670103 L24.4315949,28.3797905 L26.3188861,29.5233518 C25.8167089,29.9318103 25.2798987,30.287294 24.7126076,30.5829509 C23.2987342,31.3262351 21.7131139,31.7030928 20,31.7030928 C18.2868861,31.7030928 16.7012658,31.3262351 15.2850633,30.581826 C14.7192911,30.2868849 14.1828861,29.9316058 13.6810127,29.523454 L15.5683038,28.3798928 L16.4968101,25.5670103 L20,25.5670103 L20,25.5670103 Z M33.4177215,19.1752577 C33.4177215,19.8017518 32.7466329,20.6547695 31.8717975,21.1255093 C31.8885063,20.8223868 31.8987342,17.9462004 31.8987342,17.9462004 C33.2523544,18.1378507 33.4177215,18.8447274 33.4177215,19.1752577 L33.4177215,19.1752577 Z M30.3797468,4.34680082 L30.3797468,4.37195876 C30.3791392,4.35927753 30.3797468,4.35140289 30.3797468,4.34680082 L30.3797468,4.34680082 Z M20,1.53402062 C25.2608608,1.53402062 27.8333165,2.35646021 29.0648101,3.04646268 C30.2047595,3.6851266 30.3628354,4.29638268 30.3797468,4.3823901 L30.3797468,10.5638796 C29.7466329,10.3634342 28.8542785,10.2269064 27.5949367,10.2269064 C24.5461266,10.2269064 21.0802025,11.6976231 20,12.1927027 C18.9197975,11.6976231 15.4538734,10.2269064 12.4050633,10.2269064 C11.1457215,10.2269064 10.2533671,10.3634342 9.62025316,10.5638796 L9.62025316,4.35303918 C9.6204557,4.3248132 10.252557,1.53402062 20,1.53402062 L20,1.53402062 Z M6.58227848,19.1752577 C6.58227848,18.8447274 6.74764557,18.1378507 8.10126582,17.9462004 C8.10126582,17.9462004 8.11149367,20.8225913 8.12820253,21.1255093 C7.25336709,20.6546672 6.58227848,19.8017518 6.58227848,19.1752577 L6.58227848,19.1752577 Z M9.74450633,22.1058507 C9.66207595,21.5137188 9.62025316,20.8718845 9.62025316,20.1979381 L9.62025316,12.2307464 C9.80060759,12.0989229 10.4535696,11.7608247 12.4050633,11.7608247 C15.6374684,11.7608247 19.6266329,13.7086219 19.6663291,13.7282573 L19.9998987,13.8927043 L20.3332658,13.7283596 C20.3733671,13.7086219 24.3625316,11.7608247 27.5949367,11.7608247 C29.5456203,11.7608247 30.1990886,12.0987184 30.3797468,12.2306441 L30.3797468,20.1979381 C30.3797468,20.8718845 30.3379241,21.5137188 30.2551899,22.1088165 C29.9201013,24.5840099 28.9574684,26.7550581 27.4635949,28.4279588 L25.6950886,27.356292 L24.5980759,24.0329897 L20.7594937,24.0329897 L20.7594937,20.7092784 L19.2405063,20.7092784 L19.2405063,24.0329897 L15.4019241,24.0329897 L14.3050127,27.356292 L12.5365063,28.4278565 C11.0424304,26.7545468 10.0798987,24.5834986 9.74450633,22.1058507 L9.74450633,22.1058507 Z M14.8683544,35.6306969 L20,41.8496165 L25.1316456,35.6306969 C25.5065316,35.9437394 25.9803544,36.2872577 26.550481,36.6592066 L20,44.0992066 L13.449519,36.6591043 C14.0198481,36.2869509 14.4936709,35.9435348 14.8683544,35.6306969 L14.8683544,35.6306969 Z M10.6150886,38.3127786 C10.6150886,38.3127786 11.3603038,37.9306029 12.1334684,37.4731579 L19.2405063,45.5452767 L19.2405063,48.0659794 L7.59493671,48.0659794 L7.59493671,39.5275184 C8.4764557,39.0910384 9.48962025,38.6831934 10.6150886,38.3127786 L10.6150886,38.3127786 Z M1.51898734,46.2895835 C1.52840506,46.0784 1.74065823,43.0468685 6.07594937,40.366014 L6.07594937,48.0659794 L1.51898734,48.0659794 L1.51898734,46.2895835 L1.51898734,46.2895835 Z M38.4810127,48.0659794 L33.9240506,48.0659794 L33.9240506,40.333186 C38.3233418,43.0252899 38.4760506,46.1049897 38.4810127,46.2835497 L38.4810127,48.0659794 L38.4810127,48.0659794 Z" id="Shape" fill="#231F20"></path>
                    </g>
                    <rect id="Rectangle-10" fill-opacity="0.66" fill="#FFFFFF" x="0" y="0" width="52.8" height="63.2"></rect>
                </g>
            </g>
            <g id="Group-26" transform="translate(468.000000, 0.000000)">
                <rect id="shadow" fill="#323C5A" opacity="0.244696553" filter="url(#filter-6)" x="12.8" y="24" width="141.6" height="211.2" rx="22.30272"></rect>
                <rect id="bg" fill="#FFFFFF" x="0" y="0" width="166.4" height="211.2" rx="10.22208"></rect>
                <g id="Group-4" transform="translate(15.200000, 131.200000)" fill="#323C5A">
                    <text id="30%" font-family="AvenirNext-DemiBold, Avenir Next" font-size="20" font-weight="500">
                        <tspan x="0" y="38.4">30%</tspan>
                    </text>
                    <text id="Return" font-family="Montserrat, sans-serif" font-size="12.8" font-weight="400">
                        <tspan x="0" y="13">Return</tspan>
                    </text>
                </g>
                <g id="Group-5-Copy-3" transform="translate(19.200000, 74.400000)" fill="#323C5A">
                    <text id="22%" font-family="AvenirNext-DemiBold, Avenir Next" font-size="20" font-weight="500">
                        <tspan x="0" y="38.4">22%</tspan>
                    </text>
                    <text id="Volatility" font-family="Montserrat, sans-serif" font-size="12.8" font-weight="400">
                        <tspan x="0" y="13">Volatility</tspan>
                    </text>
                </g>
                <g id="logo" transform="translate(15.200000, 22.400000)">
                    <rect id="Rectangle-3" fill="url(#linearGradient-2)" x="0" y="5.05423448" width="30.5733108" height="30.5733108" rx="9.504"></rect>
                    <text id="a" font-family="Montserrat, sans-serif" font-size="28.512" font-weight="300" fill="#FFFFFF">
                        <tspan x="6.98741009" y="28.2039172">a</tspan>
                    </text>
                    <text id="Advice" font-family="Montserrat, sans-serif" font-size="20.2752" font-weight="400" letter-spacing="0.422399998" fill="#323C5A">
                        <tspan x="38.0461714" y="30.9824">Advice</tspan>
                    </text>
                </g>
                <g id="Group-20" transform="translate(98.400000, 124.800000)">
                    <g id="user-7" transform="translate(16.000000, 16.000000)">
                        <path d="M27.7772152,36.5301443 C28.7696203,37.1437526 29.6202532,37.5835052 29.6202532,37.5835052 C39.2101266,40.6515464 39.2405063,46.2762887 39.2405063,46.2762887 L39.2405063,48.8329897 L0.759493671,48.8329897 L0.759493671,46.2762887 C0.759493671,46.2762887 0.850632911,40.6822268 10.3797468,37.5835052 C10.3797468,37.5835052 11.2506329,37.123299 12.2632911,36.5096907 C13.2556962,35.8960825 14.3898734,35.139299 14.9367089,34.5154639 C14.9367089,34.5154639 17.0227848,40.1402062 20,40.1402062 C22.9772152,40.1402062 25.0632911,34.5154639 25.0632911,34.5154639 C25.6202532,35.139299 26.7746835,35.9165361 27.7772152,36.5301443 L27.7772152,36.5301443 Z" id="Shape" fill="#AFB6BB"></path>
                        <path d="M14.9367089,31.2633402 C16.4151899,32.0405773 18.1164557,32.4701031 20,32.4701031 C21.8835443,32.4701031 23.5848101,32.0405773 25.0632911,31.2633402 L25.0632911,34.5154639 C25.0632911,34.5154639 22.9772152,40.1402062 20,40.1402062 C17.0227848,40.1402062 14.9367089,34.5154639 14.9367089,34.5154639 L14.9367089,31.2633402 L14.9367089,31.2633402 Z" id="Shape" fill="#FFE1B2"></path>
                        <path d="M25.0632911,31.2633402 C23.5848101,32.0405773 21.8835443,32.4701031 20,32.4701031 C18.1164557,32.4701031 16.4151899,32.0405773 14.9367089,31.2633402 C11.1493671,29.289567 8.86075949,25.0761237 8.86075949,20.1979381 L8.86075949,12.5278351 C8.86075949,12.5278351 13.8835443,12.0574021 16.4556962,10.4824742 L20,10.4824742 L23.5443038,10.4824742 C25.4886076,12.0164948 31.1392405,12.5278351 31.1392405,12.5278351 L31.1392405,20.1979381 C31.1392405,25.0761237 28.8506329,29.289567 25.0632911,31.2633402 L25.0632911,31.2633402 Z" id="Shape" fill="#FFE1B2"></path>
                        <path d="M33.6708861,13.0391753 L33.6708861,22.7546392 C33.6708861,28.2566598 32.6886076,34.9552165 27.7772152,36.5301443 C26.7746835,35.9165361 25.6202532,35.139299 25.0632911,34.5154639 L25.0632911,31.2633402 C28.8506329,29.289567 31.1392405,25.0761237 31.1392405,20.1979381 L31.1392405,12.5278351 C31.1392405,12.5278351 25.4886076,12.0164948 23.5443038,10.4824742 L20,10.4824742 L16.4556962,10.4824742 C13.8835443,12.0574021 8.86075949,12.5278351 8.86075949,12.5278351 L8.86075949,20.1979381 C8.86075949,25.0761237 11.1493671,29.289567 14.9367089,31.2633402 L14.9367089,34.5154639 C14.3898734,35.139299 13.2556962,35.8960825 12.2632911,36.5096907 C7.40253165,34.8938557 6.32911392,28.2362062 6.32911392,22.7546392 L6.32911392,13.0391753 C6.32911392,6.25880412 11.7670886,0.767010309 18.4810127,0.767010309 L21.5189873,0.767010309 C28.2329114,0.767010309 33.6708861,6.25880412 33.6708861,13.0391753 L33.6708861,13.0391753 Z" id="Shape" fill="#FFD248"></path>
                        <path d="M29.9123038,36.8724355 C29.8322025,36.8301988 29.6662278,36.7416346 29.444557,36.618913 C32.7542278,34.6775588 34.4303797,30.0264082 34.4303797,22.7546392 L34.4303797,13.0391753 C34.4303797,5.84932289 28.6383797,0 21.5189873,0 L18.4810127,0 C11.3616203,0 5.56962025,5.84932289 5.56962025,13.0391753 L5.56962025,22.7546392 C5.56962025,29.8689155 7.30511392,34.6018804 10.6088101,36.5860849 C10.358481,36.7257831 10.1711392,36.8271307 10.0832405,36.874174 C0.213265823,40.1086054 0.00405063291,46.0133575 0,46.2637097 L0,49.6 L40,49.6 L40,46.2720957 C39.9985823,46.0202095 39.8527595,40.0771068 29.9123038,36.8724355 L29.9123038,36.8724355 Z M7.08860759,22.7546392 L7.08860759,13.0391753 C7.08860759,6.69518186 12.1991899,1.53402062 18.4810127,1.53402062 L21.5189873,1.53402062 C27.8008101,1.53402062 32.9113924,6.69518186 32.9113924,13.0391753 L32.9113924,22.7546392 C32.9113924,26.0347843 32.5531139,28.7648297 31.8465823,30.8686878 C31.009519,33.3611645 29.6739241,34.9784313 27.8661266,35.6850012 C26.9471392,35.1079027 26.2398987,34.5939035 25.8227848,34.2002738 L25.8227848,31.7182285 C27.627443,30.6763216 29.1301266,29.1200066 30.1861266,27.1908223 C31.3065316,25.1444388 31.8987342,22.7263109 31.8987342,20.1979381 L31.8986329,11.8266854 L31.2070886,11.7638928 C29.6968101,11.6267513 25.4599494,11.0205064 24.0118481,9.8780701 L23.8058734,9.71546392 L16.243443,9.71546392 L16.0619747,9.82662928 C13.6710886,11.290494 8.83898734,11.7594953 8.79048101,11.7640973 L8.10126582,11.8290375 L8.10126582,20.1979381 C8.10126582,22.7263109 8.69346835,25.1444388 9.81387342,27.1909245 C10.8699747,29.1200066 12.3726582,30.6764239 14.1772152,31.7183307 L14.1772152,34.2038532 C13.7795443,34.5835744 13.1080506,35.0728247 12.1766076,35.6616841 C9.78156962,34.6939216 7.08860759,31.6311984 7.08860759,22.7546392 L7.08860759,22.7546392 Z M24.7126076,30.5829509 C23.2987342,31.3262351 21.7131139,31.7030928 20,31.7030928 C18.2868861,31.7030928 16.7012658,31.3262351 15.2873924,30.5829509 L15.2850633,30.5817237 C13.564962,29.6852421 12.1327595,28.2560462 11.1431899,26.4486631 C10.1468354,24.6288033 9.62025316,22.4673682 9.62025316,20.1979381 L9.62025316,13.2127241 C11.0819241,13.0254713 14.5118987,12.4768033 16.6614684,11.2494845 L23.2987342,11.2494845 C25.1042025,12.4809963 28.7971646,13.0320165 30.3797468,13.2185534 L30.3797468,20.1979381 C30.3797468,22.4673682 29.8531646,24.6288033 28.8568101,26.4486631 C27.8673418,28.2560462 26.4351392,29.6853443 24.7126076,30.5829509 L24.7126076,30.5829509 Z M15.6962025,32.4493427 C17.0310886,32.9717278 18.4733165,33.2371134 20,33.2371134 C21.5270886,33.2371134 22.9697215,32.9717278 24.3037975,32.4495472 L24.3037975,34.3703456 C24.1602025,34.7307381 23.7007595,35.8250062 23.0089114,36.9135472 C22.2957975,38.0356322 21.1949367,39.3731959 20,39.3731959 C18.8105316,39.3731959 17.7141266,38.0465748 17.0038481,36.933694 C16.3079494,35.8433122 15.8412152,34.7330903 15.6962025,34.3700388 L15.6962025,32.4493427 L15.6962025,32.4493427 Z M38.4810127,48.0659794 L1.51898734,48.0659794 L1.51898734,46.2855951 C1.52465823,46.130659 1.79979747,41.1793518 10.612557,38.3135967 C10.612557,38.3135967 11.6341266,37.7853823 12.6598481,37.1637971 C13.5004557,36.6440709 14.1579747,36.196546 14.6588354,35.8014845 C14.9106835,36.3428915 15.2666329,37.0402573 15.7127089,37.7421229 C17.0474937,39.8422994 18.4899241,40.9072165 20,40.9072165 C21.5100759,40.9072165 22.9525063,39.8422994 24.2872911,37.7421229 C24.7343797,37.038621 25.091038,36.339619 25.3429873,35.7975984 C25.8658228,36.2103522 26.5471392,36.6740355 27.3806582,37.1842507 C28.3862278,37.8060404 29.3908861,38.3146194 29.3908861,38.3146194 C31.9688101,39.1393089 35.4385823,40.6929649 37.3297215,43.4111472 C38.4150886,44.9711439 38.478481,46.2192231 38.4810127,46.2844701 L38.4810127,48.0659794 L38.4810127,48.0659794 Z" id="Shape" fill="#231F20"></path>
                        <path d="M20.7594937,19.1752577 L19.2405063,19.1752577 L19.2405063,23.2659794 C19.2405063,23.6895736 19.580557,24.0329897 20,24.0329897 L22.0253165,24.0329897 L22.0253165,22.4989691 L20.7594937,22.4989691 L20.7594937,19.1752577 L20.7594937,19.1752577 Z" id="Shape" fill="#231F20"></path>
                    </g>
                    <rect id="Rectangle-12" fill-opacity="0.66" fill="#FFFFFF" x="0" y="0" width="62.4" height="82.4"></rect>
                </g>
            </g>
            <g id="Group-28" transform="translate(227.000000, 274.000000)">
                <g id="Group-8" transform="translate(0.800000, 0.400000)">
                    <rect id="Rectangle-9-Copy" fill="#323C5A" opacity="0.154501812" filter="url(#filter-7)" x="13.8633673" y="26.312" width="154.34549" height="229.724" rx="24.288"></rect>
                    <mask id="mask-9" fill="white">
                        <use xlink:href="#path-8"></use>
                    </mask>
                    <use id="bg" fill="#FFFFFF" xlink:href="#path-8"></use>
                    <g id="logo" mask="url(#mask-9)">
                        <g transform="translate(16.155857, 25.396000)">
                            <rect id="Rectangle-3" fill="url(#linearGradient-10)" fill-rule="evenodd" x="0" y="6.05455172" width="36.6242786" height="36.6242786" rx="11.385"></rect>
                            <text id="p" fill="none" font-family="Montserrat, sans-serif" font-size="34.155" font-weight="400">
                                <tspan x="9.20678398" y="34.2442759" fill="#FFFFFF">p</tspan>
                            </text>
                            <text id="Portfolio" fill="none" font-family="Montserrat, sans-serif" font-size="24.288" font-weight="400" letter-spacing="0.505999994">
                                <tspan x="44.275" y="36.144" fill="#323C5A">Portfolio</tspan>
                            </text>
                        </g>
                    </g>
                    <g id="Group-5-Copy" mask="url(#mask-9)">
                        <g transform="translate(16.800000, 90.400000)">
                            <text id="17%" font-family="AvenirNext-DemiBold, Avenir Next" font-size="20" font-weight="500">
                                <tspan x="0" y="38.4" fill="#323C5A">17%</tspan>
                            </text>
                            <text id="Volatility" font-family="Montserrat, sans-serif" font-size="12.8" font-weight="400">
                                <tspan x="0" y="13" fill="#323C5A">Volatility</tspan>
                            </text>
                        </g>
                    </g>
                    <g id="Group-4-Copy-3" mask="url(#mask-9)">
                        <g transform="translate(16.800000, 146.400000)">
                            <text id="26.5%" font-family="AvenirNext-DemiBold, Avenir Next" font-size="20" font-weight="500">
                                <tspan x="0" y="38.4" fill="#323C5A">26.5%</tspan>
                            </text>
                            <text id="Return" font-family="Montserrat, sans-serif" font-size="12.8" font-weight="400">
                                <tspan x="0" y="13" fill="#323C5A">Return</tspan>
                            </text>
                        </g>
                    </g>
                </g>
                <g id="Group-23" transform="translate(113.600000, 150.000000)">
                    <g id="user-19" transform="translate(13.600000, 8.000000)">
                        <path d="M43.0926667,49.1734795 L43.0926667,51.9349858 L21.9815556,51.9349858 L21.9815556,38.1274544 C25.2482222,38.1274544 27.5371111,36.4705506 27.5371111,36.4705506 C28.7482222,37.8181657 32.5371111,39.7843582 32.5371111,39.7843582 C43.0593333,43.0981657 43.0926667,49.1734795 43.0926667,49.1734795 L43.0926667,49.1734795 Z" id="Shape" fill="#6D6E71"></path>
                        <path d="M21.9815556,38.1274544 L21.9815556,51.9349858 L0.870444444,51.9349858 L0.870444444,49.1734795 C0.870444444,49.1734795 0.970444444,43.1313038 11.426,39.7843582 C11.426,39.7843582 15.2148889,37.8181657 16.426,36.4705506 C16.426,36.4705506 18.7148889,38.1274544 21.9815556,38.1274544 L21.9815556,38.1274544 Z" id="Shape" fill="#58595B"></path>
                        <path d="M16.426,36.4705506 L16.426,32.9579146 C18.0482222,33.7974126 19.9148889,34.2613456 21.9815556,34.2613456 C24.0482222,34.2613456 25.9148889,33.7974126 27.5371111,32.9579146 L27.5371111,36.4705506 C27.5371111,36.4705506 25.2482222,38.1274544 21.9815556,38.1274544 C18.7148889,38.1274544 16.426,36.4705506 16.426,36.4705506 L16.426,36.4705506 Z" id="Shape" fill="#FFD7A3"></path>
                        <path d="M34.2037778,14.9308017 C34.2037778,14.9308017 29.2037778,15.9028519 21.9815556,11.0646929 C21.1704444,10.5234377 9.75933333,14.9308017 9.75933333,14.9308017 L9.75933333,9.96009038 C9.75933333,9.96009038 9.29266667,1.67557155 21.9815556,1.67557155 C21.9815556,1.67557155 28.5148889,-0.8097841 34.7593333,2.78017406 C41.0037778,6.37013222 35.7371111,9.17582259 41.426,12.1692954 C41.426,12.1692954 41.1926667,14.9308017 34.2037778,14.9308017 L34.2037778,14.9308017 Z" id="Shape" fill="#A18369"></path>
                        <path d="M9.75933333,21.0061155 C9.75933333,21.7461992 9.80377778,22.4752368 9.90377778,23.1821824 C8.18155556,22.9502159 6.426,21.3154042 6.426,19.901513 C6.426,18.3771615 7.91488889,17.6923079 9.75933333,17.6923079 L9.75933333,21.0061155 L9.75933333,21.0061155 Z" id="Shape" fill="#FFD7A3"></path>
                        <path d="M34.2037778,17.6923079 C36.0482222,17.6923079 37.5371111,18.3771615 37.5371111,19.901513 C37.5371111,21.3154042 35.7815556,22.9502159 34.0593333,23.1821824 C34.1593333,22.4752368 34.2037778,21.7461992 34.2037778,21.0061155 L34.2037778,17.6923079 L34.2037778,17.6923079 Z" id="Shape" fill="#FFD7A3"></path>
                        <path d="M34.2037778,17.6923079 L34.2037778,21.0061155 C34.2037778,21.7461992 34.1593333,22.4752368 34.0593333,23.1821824 C33.4593333,27.5011782 31.1037778,31.1242745 27.5371111,32.9579146 C25.9148889,33.7974126 24.0482222,34.2613456 21.9815556,34.2613456 C19.9148889,34.2613456 18.0482222,33.7974126 16.426,32.9579146 C12.8593333,31.1242745 10.5037778,27.5011782 9.90377778,23.1821824 C9.80377778,22.4752368 9.75933333,21.7461992 9.75933333,21.0061155 L9.75933333,17.6923079 L9.75933333,14.9308017 C9.75933333,14.9308017 21.1704444,10.5234377 21.9815556,11.0646929 C29.2037778,15.9028519 34.2037778,14.9308017 34.2037778,14.9308017 L34.2037778,17.6923079 L34.2037778,17.6923079 Z" id="Shape" fill="#FFE1B2"></path>
                        <path d="M32.8594444,39.0169908 C31.8668889,38.4971649 29.4231111,37.1204987 28.3704444,36.1327632 L28.3704444,33.4485791 C31.7466667,31.5295531 34.0553333,28.0865071 34.7931111,23.8720067 C36.7056667,23.3275481 38.3704444,21.5429523 38.3704444,19.9014025 C38.3704444,18.2396385 37.114,17.1370243 35.0371111,16.9085925 L35.0371111,15.7451146 C41.7765556,15.5208803 42.2271111,12.5850678 42.2564444,12.238554 L42.3025556,11.6931013 L41.8158889,11.4370544 C39.4222222,10.1775866 39.3041111,9.14036485 39.1404444,7.70482343 C38.9577778,6.10149289 38.7304444,4.10613891 35.1765556,2.06306611 C29.1185556,-1.41996653 22.9017778,0.478624268 21.8348889,0.847451046 C17.0021111,0.8712 13.4244444,2.06847866 11.2,4.4071431 C8.88211111,6.84411715 8.91355556,9.6457205 8.926,9.97776402 L8.926,16.9085925 C6.84911111,17.1370243 5.59266667,18.239749 5.59266667,19.9014025 C5.59266667,21.5429523 7.25744444,23.3275481 9.17,23.8720067 C9.90855556,28.0880536 12.2175556,31.5308787 15.5926667,33.4485791 L15.5926667,36.1326527 C14.5393333,37.1209406 12.0934444,38.4987113 11.102,39.017764 C0.270555556,42.5111799 0.0416666667,48.8893757 0.0372222222,49.1597824 L0.0371111111,52.7633272 L43.926,52.7633272 L43.926,49.1688402 C43.9245556,48.896887 43.7643333,42.4783732 32.8594444,39.0169908 L32.8594444,39.0169908 Z M21.9815556,37.2990025 C19.7336667,37.2990025 17.971,36.429128 17.2593333,36.015123 L17.2593333,34.2389222 C18.724,34.8031531 20.3064444,35.0897975 21.9815556,35.0897975 C23.657,35.0897975 25.2397778,34.8031531 26.7037778,34.2391431 L26.7037778,36.0172218 C25.9961111,36.432 24.2463333,37.2990025 21.9815556,37.2990025 L21.9815556,37.2990025 Z M36.7037778,19.901513 C36.7037778,20.5781925 35.9674444,21.499431 35.0075556,22.00799 C35.0258889,21.6806962 35.0371111,18.5740017 35.0371111,18.5740017 C36.5224444,18.7810042 36.7037778,19.5445054 36.7037778,19.901513 L36.7037778,19.901513 Z M12.4111111,5.54554644 C14.3306667,3.5273272 17.5506667,2.50402343 21.9816667,2.50402343 L22.1355556,2.50358159 L22.2782222,2.44978745 C22.3401111,2.42659079 28.5328889,0.157737238 34.3423333,3.49728201 C37.169,5.12248368 37.3152222,6.4054795 37.4844444,7.89128033 C37.6488889,9.3347749 37.8335556,10.9557791 40.344,12.5073038 C39.8747778,13.0660117 38.5725556,13.9654895 35.0336667,14.0878795 L34.0481111,14.1168201 C34.0362222,14.1190293 32.8465556,14.3292351 30.8363333,13.9773088 C28.9737778,13.6511197 26.0064444,12.7616937 22.4461111,10.3767464 C22.0393333,10.1052351 21.4947778,10.0759632 19.5003333,10.6438393 C18.4371111,10.9465004 17.0204444,11.4072301 15.2896667,12.0131046 C13.4837778,12.6452686 11.7025556,13.3078092 10.5928889,13.7263431 L10.5928889,9.96009038 L10.5915556,9.91380753 C10.5901111,9.89061088 10.4831111,7.57249205 12.4111111,5.54554644 L12.4111111,5.54554644 Z M7.25933333,19.901513 C7.25933333,19.5445054 7.44077778,18.7810042 8.926,18.5740017 C8.926,18.5740017 8.93722222,21.6806962 8.95555556,22.00799 C7.99566667,21.4993205 7.25933333,20.5781925 7.25933333,19.901513 L7.25933333,19.901513 Z M10.729,23.0668619 C10.6385556,22.4272971 10.5926667,21.7340485 10.5926667,21.0061155 L10.5926667,15.4986778 C15.3441111,13.6795079 20.5471111,11.899441 21.659,11.8470828 C27.2195556,15.5297172 31.5153333,15.8929105 33.3704444,15.8354711 L33.3704444,21.0061155 C33.3704444,21.7340485 33.3245556,22.4272971 33.2338889,23.0688502 C32.6607778,27.1942092 30.4448889,30.5304402 27.1524444,32.2231331 C25.6011111,33.0259582 23.8613333,33.4328937 21.9816667,33.4328937 C20.102,33.4328937 18.3622222,33.0258477 16.8088889,32.2220285 C13.5183333,30.5303297 11.3024444,27.1940987 10.729,23.0668619 L10.729,23.0668619 Z M1.70377778,49.1835314 C1.71,49.0161841 2.01188889,43.668251 11.6814444,40.5729339 C11.6814444,40.5729339 15.0105556,38.8415799 16.5375556,37.5160569 C17.374,37.9884954 19.0245556,38.7542059 21.1483333,38.9215531 L21.1483333,51.1065339 L1.70388889,51.1065339 L1.70377778,49.1835314 L1.70377778,49.1835314 L1.70377778,49.1835314 Z M42.2593333,51.1065339 L22.8148889,51.1065339 L22.8148889,38.9215531 C24.9385556,38.7542059 26.5892222,37.9884954 27.4256667,37.5160569 C28.9526667,38.8415799 32.2854444,40.574149 32.2854444,40.574149 C35.114,41.4649004 38.9211111,43.143123 40.9961111,46.079046 C42.187,47.7640067 42.2565556,49.1120636 42.2593333,49.1825372 L42.2593333,51.1065339 L42.2593333,51.1065339 Z" id="Shape" fill="#231F20"></path>
                        <path d="M21.9815556,26.2529774 L24.2037778,26.2529774 L24.2037778,24.5960736 L22.8148889,24.5960736 L22.8148889,21.0061155 L21.1482222,21.0061155 L21.1482222,25.4245255 C21.1482222,25.8820519 21.5213333,26.2529774 21.9815556,26.2529774 L21.9815556,26.2529774 Z" id="Shape" fill="#231F20"></path>
                        <rect id="Rectangle-path" fill="#231F20" x="24.2037778" y="41.1651113" width="2.22222222" height="1.65690377"></rect>
                        <rect id="Rectangle-path" fill="#231F20" x="24.2037778" y="44.4789188" width="2.22222222" height="1.65690377"></rect>
                        <rect id="Rectangle-path" fill="#231F20" x="24.2037778" y="47.7927264" width="2.22222222" height="1.65690377"></rect>
                        <rect id="Rectangle-path" fill="#231F20" x="17.5371111" y="41.1651113" width="2.22222222" height="1.65690377"></rect>
                        <rect id="Rectangle-path" fill="#231F20" x="17.5371111" y="44.4789188" width="2.22222222" height="1.65690377"></rect>
                        <rect id="Rectangle-path" fill="#231F20" x="17.5371111" y="47.7927264" width="2.22222222" height="1.65690377"></rect>
                    </g>
                    <rect id="Rectangle-13" fill-opacity="0.66" fill="#FFFFFF" x="0" y="0" width="67.2" height="71.2"></rect>
                </g>
            </g>
        </g>
    </g>
</svg>